<?xml version="1.0" standalone="no"?>
<!DOCTYPE svg PUBLIC "-//W3C//DTD SVG 20010904//EN"
 "http://www.w3.org/TR/2001/REC-SVG-20010904/DTD/svg10.dtd">
<svg version="1.0" xmlns="http://www.w3.org/2000/svg"
 width="2360.000000pt" height="2271.000000pt" viewBox="0 0 2360.000000 2271.000000"
 preserveAspectRatio="xMidYMid meet">

<g transform="translate(0.000000,2271.000000) scale(0.100000,-0.100000)"
fill="#000000" stroke="none">
<path d="M10656 22459 c-2 -8 -46 -374 -97 -814 -51 -440 -94 -801 -95 -803
-1 -2 -347 -123 -768 -270 -421 -147 -766 -271 -766 -277 0 -5 235 -117 523
-247 287 -131 540 -246 562 -256 l39 -19 -64 -35 c-1148 -632 -1903 -1108
-2510 -1582 -282 -220 -576 -500 -745 -711 -264 -330 -445 -713 -445 -942 l0
-48 49 96 c341 680 1349 1509 2927 2406 374 213 651 360 1132 600 249 125 449
230 444 235 -7 7 -482 230 -819 383 -84 39 -153 72 -153 75 0 3 207 77 460
164 431 150 460 161 464 185 3 14 28 226 56 471 28 245 54 452 58 461 5 12 81
-81 287 -353 154 -203 287 -378 295 -388 15 -20 23 -18 490 75 261 52 478 94
482 93 4 -2 -119 -184 -273 -405 l-279 -402 223 -398 c265 -471 261 -464 245
-458 -60 21 -914 275 -924 275 -7 0 -160 -160 -341 -356 l-328 -356 -7 49 c-3
26 -7 143 -7 260 -1 196 -2 212 -19 217 -54 18 -1483 -798 -2212 -1262 -880
-560 -1442 -983 -1856 -1396 -336 -337 -450 -516 -508 -802 -39 -191 -38 -395
4 -557 78 -308 338 -587 689 -741 104 -46 129 -43 63 6 -72 56 -221 213 -281
298 -67 95 -121 202 -157 310 -25 77 -28 99 -28 230 -1 109 3 161 16 208 68
243 211 437 517 701 565 485 1690 1231 3161 2095 l265 156 6 -263 c4 -144 7
-293 8 -330 0 -38 5 -67 10 -65 4 2 256 271 559 600 l551 596 108 -32 c59 -18
411 -124 781 -236 370 -112 675 -201 677 -198 3 3 -174 326 -394 717 l-400
713 34 46 c111 156 888 1279 892 1290 3 6 1 12 -3 12 -5 0 -367 -71 -804 -158
-793 -158 -795 -158 -811 -138 -8 12 -229 302 -489 646 -260 344 -477 629
-481 634 -5 6 -10 3 -13 -5z"/>
<path d="M10347 17338 c-1004 -667 -1826 -1216 -1827 -1220 0 -5 1519 -8 3376
-8 2090 0 3374 4 3372 9 -4 14 -3071 2430 -3083 2431 -6 0 -833 -546 -1838
-1212z"/>
<path d="M15205 14417 c-15 -43 -191 -1103 -184 -1108 19 -12 3250 -751 3256
-745 7 6 -62 775 -69 780 -2 2 -599 218 -1328 481 -729 263 -1403 506 -1498
541 -114 41 -175 58 -177 51z"/>
<path d="M6305 13161 c-539 -533 -981 -974 -983 -981 -3 -7 -1 -11 4 -8 5 2
784 243 1731 534 948 291 1723 531 1723 534 -1 3 -319 193 -708 423 -389 229
-725 428 -748 442 l-41 24 -978 -968z"/>
<path d="M11733 13923 c9 -2 25 -2 35 0 9 3 1 5 -18 5 -19 0 -27 -2 -17 -5z"/>
<path d="M11798 13923 c6 -2 18 -2 25 0 6 3 1 5 -13 5 -14 0 -19 -2 -12 -5z"/>
<path d="M12011 13844 c0 -11 3 -14 6 -6 3 7 2 16 -1 19 -3 4 -6 -2 -5 -13z"/>
<path d="M11821 13804 c0 -11 3 -14 6 -6 3 7 2 16 -1 19 -3 4 -6 -2 -5 -13z"/>
<path d="M12001 13704 c0 -11 3 -14 6 -6 3 7 2 16 -1 19 -3 4 -6 -2 -5 -13z"/>
<path d="M11811 13644 c0 -11 3 -14 6 -6 3 7 2 16 -1 19 -3 4 -6 -2 -5 -13z"/>
<path d="M11991 13564 c0 -11 3 -14 6 -6 3 7 2 16 -1 19 -3 4 -6 -2 -5 -13z"/>
<path d="M11802 13490 c0 -14 2 -19 5 -12 2 6 2 18 0 25 -3 6 -5 1 -5 -13z"/>
<path d="M11981 13424 c0 -11 3 -14 6 -6 3 7 2 16 -1 19 -3 4 -6 -2 -5 -13z"/>
<path d="M11791 13334 c0 -11 3 -14 6 -6 3 7 2 16 -1 19 -3 4 -6 -2 -5 -13z"/>
<path d="M11971 13284 c0 -11 3 -14 6 -6 3 7 2 16 -1 19 -3 4 -6 -2 -5 -13z"/>
<path d="M11781 13174 c0 -11 3 -14 6 -6 3 7 2 16 -1 19 -3 4 -6 -2 -5 -13z"/>
<path d="M11988 13033 c7 -3 16 -2 19 1 4 3 -2 6 -13 5 -11 0 -14 -3 -6 -6z"/>
<path d="M11663 13023 c9 -2 25 -2 35 0 9 3 1 5 -18 5 -19 0 -27 -2 -17 -5z"/>
<path d="M12158 13023 c6 -2 18 -2 25 0 6 3 1 5 -13 5 -14 0 -19 -2 -12 -5z"/>
<path d="M11333 13013 c9 -2 25 -2 35 0 9 3 1 5 -18 5 -19 0 -27 -2 -17 -5z"/>
<path d="M12338 13013 c7 -3 16 -2 19 1 4 3 -2 6 -13 5 -11 0 -14 -3 -6 -6z"/>
<path d="M11003 13003 c9 -2 25 -2 35 0 9 3 1 5 -18 5 -19 0 -27 -2 -17 -5z"/>
<path d="M12508 13003 c6 -2 18 -2 25 0 6 3 1 5 -13 5 -14 0 -19 -2 -12 -5z"/>
<path d="M12688 12993 c6 -2 18 -2 25 0 6 3 1 5 -13 5 -14 0 -19 -2 -12 -5z"/>
<path d="M12868 12983 c7 -3 16 -2 19 1 4 3 -2 6 -13 5 -11 0 -14 -3 -6 -6z"/>
<path d="M12048 12843 c12 -2 30 -2 40 0 9 3 -1 5 -23 4 -22 0 -30 -2 -17 -4z"/>
<path d="M11458 12833 c18 -2 45 -2 60 0 15 2 0 4 -33 4 -33 0 -45 -2 -27 -4z"/>
<path d="M12438 12833 c6 -2 18 -2 25 0 6 3 1 5 -13 5 -14 0 -19 -2 -12 -5z"/>
<path d="M10923 12823 c15 -2 39 -2 55 0 15 2 2 4 -28 4 -30 0 -43 -2 -27 -4z"/>
<path d="M12618 12823 c7 -3 16 -2 19 1 4 3 -2 6 -13 5 -11 0 -14 -3 -6 -6z"/>
<path d="M11751 12714 c0 -11 3 -14 6 -6 3 7 2 16 -1 19 -3 4 -6 -2 -5 -13z"/>
<path d="M11741 12574 c0 -11 3 -14 6 -6 3 7 2 16 -1 19 -3 4 -6 -2 -5 -13z"/>
<path d="M12921 12534 c0 -11 3 -14 6 -6 3 7 2 16 -1 19 -3 4 -6 -2 -5 -13z"/>
<path d="M11911 12474 c0 -11 3 -14 6 -6 3 7 2 16 -1 19 -3 4 -6 -2 -5 -13z"/>
<path d="M11731 12424 c0 -11 3 -14 6 -6 3 7 2 16 -1 19 -3 4 -6 -2 -5 -13z"/>
<path d="M12911 12394 c0 -11 3 -14 6 -6 3 7 2 16 -1 19 -3 4 -6 -2 -5 -13z"/>
<path d="M11902 12300 c0 -14 2 -19 5 -12 2 6 2 18 0 25 -3 6 -5 1 -5 -13z"/>
<path d="M11721 12284 c0 -11 3 -14 6 -6 3 7 2 16 -1 19 -3 4 -6 -2 -5 -13z"/>
<path d="M12901 12254 c0 -11 3 -14 6 -6 3 7 2 16 -1 19 -3 4 -6 -2 -5 -13z"/>
<path d="M10843 12190 c0 -41 2 -58 4 -37 2 20 2 54 0 75 -2 20 -4 3 -4 -38z"/>
<path d="M11711 12144 c0 -11 3 -14 6 -6 3 7 2 16 -1 19 -3 4 -6 -2 -5 -13z"/>
<path d="M12891 12124 c0 -11 3 -14 6 -6 3 7 2 16 -1 19 -3 4 -6 -2 -5 -13z"/>
<path d="M16218 12063 c7 -3 16 -2 19 1 4 3 -2 6 -13 5 -11 0 -14 -3 -6 -6z"/>
<path d="M16308 12063 c6 -2 18 -2 25 0 6 3 1 5 -13 5 -14 0 -19 -2 -12 -5z"/>
<path d="M11701 11994 c0 -11 3 -14 6 -6 3 7 2 16 -1 19 -3 4 -6 -2 -5 -13z"/>
<path d="M12881 11984 c0 -11 3 -14 6 -6 3 7 2 16 -1 19 -3 4 -6 -2 -5 -13z"/>
<path d="M15999 11933 c-13 -16 -12 -17 4 -4 16 13 21 21 13 21 -2 0 -10 -8
-17 -17z"/>
<path d="M11691 11854 c0 -11 3 -14 6 -6 3 7 2 16 -1 19 -3 4 -6 -2 -5 -13z"/>
<path d="M12871 11844 c0 -11 3 -14 6 -6 3 7 2 16 -1 19 -3 4 -6 -2 -5 -13z"/>
<path d="M10958 11833 c7 -3 16 -2 19 1 4 3 -2 6 -13 5 -11 0 -14 -3 -6 -6z"/>
<path d="M12278 11803 c23 -2 59 -2 80 0 20 2 1 4 -43 4 -44 0 -61 -2 -37 -4z"/>
<path d="M7630 11796 c0 -2 8 -10 18 -17 15 -13 16 -12 3 4 -13 16 -21 21 -21
13z"/>
<path d="M11398 11793 c7 -3 16 -2 19 1 4 3 -2 6 -13 5 -11 0 -14 -3 -6 -6z"/>
<path d="M6944 11708 l-19 -23 23 19 c21 18 27 26 19 26 -2 0 -12 -10 -23 -22z"/>
<path d="M16345 11510 c-3 -6 1 -7 9 -4 18 7 21 14 7 14 -6 0 -13 -4 -16 -10z"/>
<path d="M7870 11396 c0 -2 7 -7 16 -10 8 -3 12 -2 9 4 -6 10 -25 14 -25 6z"/>
<path d="M6875 11189 c-4 -6 -5 -12 -2 -15 2 -3 7 2 10 11 7 17 1 20 -8 4z"/>
<path d="M4470 4970 c-99 -26 -240 -97 -317 -160 -127 -103 -232 -270 -273
-434 -25 -98 -27 -280 -5 -376 56 -242 210 -437 430 -546 128 -63 221 -84 370
-84 144 0 239 21 360 78 l80 38 80 -42 c97 -52 177 -74 267 -74 l68 0 0 134 0
135 -57 6 c-32 4 -77 16 -101 26 l-43 18 29 43 c93 135 132 270 132 454 0 145
-21 241 -80 359 -105 208 -304 367 -534 425 -108 27 -300 27 -406 0z m341
-276 c114 -34 203 -95 272 -188 78 -103 108 -192 108 -328 1 -120 -23 -198
-89 -296 -7 -11 -31 2 -103 57 -120 92 -284 173 -414 207 -91 23 -115 25 -262
22 -102 -2 -164 1 -167 7 -5 15 10 118 24 162 56 172 212 326 366 362 65 15
205 12 265 -5z m-258 -830 c67 -21 208 -95 272 -142 l50 -36 -60 -18 c-131
-41 -292 -17 -411 60 -56 37 -160 140 -150 149 3 3 29 8 58 12 66 8 174 -3
241 -25z"/>
<path d="M9115 4972 c-147 -51 -249 -155 -290 -296 -13 -44 -16 -83 -13 -160
6 -134 31 -198 107 -275 62 -64 130 -101 326 -175 176 -67 225 -115 226 -221
1 -70 -24 -120 -80 -160 -39 -27 -50 -30 -120 -30 -66 0 -83 4 -114 25 -39 26
-87 107 -87 147 l0 23 -160 0 -160 0 1 -27 c0 -16 8 -58 17 -94 57 -216 255
-359 497 -359 152 0 258 38 356 128 113 104 154 216 147 397 -4 93 -8 119 -31
169 -62 135 -160 210 -372 286 -232 83 -261 111 -256 243 1 17 15 43 39 69 35
37 45 42 95 46 95 8 156 -34 178 -124 l11 -44 149 0 149 0 0 39 c0 65 -37 165
-85 230 -54 73 -140 132 -233 161 -83 26 -226 27 -297 2z"/>
<path d="M1730 4825 l0 -135 145 0 145 0 0 -645 0 -645 145 0 145 0 0 645 0
645 150 0 150 0 0 135 0 135 -440 0 -440 0 0 -135z"/>
<path d="M2760 4180 l0 -780 145 0 145 0 0 300 0 300 148 0 c94 0 169 6 210
15 168 40 296 160 338 319 18 66 18 226 0 292 -42 159 -170 279 -338 319 -48
11 -133 15 -355 15 l-293 0 0 -780z m462 500 c170 -16 240 -75 240 -200 0
-137 -80 -191 -304 -205 l-108 -7 0 211 0 211 38 0 c20 0 81 -5 134 -10z"/>
<path d="M6300 4180 l0 -780 283 0 c312 0 374 8 484 59 83 39 160 116 204 206
33 68 34 72 34 200 0 120 -2 134 -26 186 -35 74 -85 128 -151 164 -29 15 -54
29 -56 30 -2 2 24 29 57 62 48 48 63 71 76 118 25 85 17 212 -17 287 -54 117
-169 204 -305 233 -49 11 -141 15 -325 15 l-258 0 0 -780z m454 500 c116 -17
167 -65 168 -160 0 -62 -29 -111 -79 -135 -36 -17 -139 -34 -215 -35 l-38 0 0
170 0 170 48 0 c26 0 78 -5 116 -10z m121 -627 c156 -53 187 -241 55 -330 -47
-32 -89 -42 -222 -49 l-118 -7 0 208 0 208 119 -7 c65 -3 140 -14 166 -23z"/>
<path d="M7490 4397 c0 -525 1 -569 19 -640 28 -106 54 -152 130 -227 112
-110 240 -160 409 -160 158 0 282 45 387 142 66 60 101 111 134 195 l26 68 3
593 3 592 -146 0 -145 0 0 -487 c0 -269 -4 -525 -10 -570 -20 -174 -99 -253
-255 -253 -156 0 -235 79 -255 253 -6 45 -10 301 -10 570 l0 487 -145 0 -145
0 0 -563z"/>
<path d="M9830 4825 l0 -135 145 0 145 0 0 -645 0 -645 145 0 145 0 0 645 0
645 150 0 150 0 0 135 0 135 -440 0 -440 0 0 -135z"/>
<path d="M10892 4188 c-177 -425 -322 -776 -322 -780 0 -5 73 -8 163 -8 l163
0 83 200 83 200 273 0 273 0 83 -200 83 -200 163 0 c124 0 163 3 162 13 0 6
-145 356 -322 777 l-322 765 -121 3 -120 3 -322 -773z m521 132 c42 -113 79
-213 82 -222 7 -17 -5 -18 -163 -18 l-170 0 73 198 c93 252 95 256 99 251 2
-2 38 -96 79 -209z"/>
<path d="M12270 4180 l0 -780 145 0 145 0 2 559 3 560 320 -557 321 -557 167
-3 167 -2 0 780 0 780 -145 0 -145 0 -2 -559 -3 -560 -319 560 -318 559 -169
0 -169 0 0 -780z"/>
<path d="M13800 4397 c0 -525 1 -569 19 -640 28 -106 54 -152 130 -227 112
-110 240 -160 409 -160 158 0 282 45 387 142 66 60 101 111 134 195 l26 68 3
593 3 592 -146 0 -145 0 0 -487 c0 -269 -4 -525 -10 -570 -20 -174 -99 -253
-255 -253 -156 0 -235 79 -255 253 -6 45 -10 301 -10 570 l0 487 -145 0 -145
0 0 -563z"/>
<path d="M15180 4180 l0 -780 385 0 385 0 0 135 0 135 -240 0 -240 0 0 645 0
645 -145 0 -145 0 0 -780z"/>
<path d="M16670 4397 c0 -525 1 -569 19 -640 28 -106 54 -152 130 -227 112
-110 240 -160 409 -160 158 0 282 45 387 142 66 60 101 111 134 195 l26 68 3
593 3 592 -146 0 -145 0 0 -487 c0 -269 -4 -525 -10 -570 -20 -174 -99 -253
-255 -253 -156 0 -235 79 -255 253 -6 45 -10 301 -10 570 l0 487 -145 0 -145
0 0 -563z"/>
<path d="M18050 4180 l0 -780 385 0 385 0 0 135 0 135 -240 0 -240 0 0 645 0
645 -145 0 -145 0 0 -780z"/>
<path d="M18950 4397 c0 -525 1 -569 19 -640 28 -106 54 -152 130 -227 112
-110 240 -160 409 -160 158 0 282 45 387 142 66 60 101 111 134 195 l26 68 3
593 3 592 -146 0 -145 0 0 -487 c0 -269 -4 -525 -10 -570 -20 -174 -99 -253
-255 -253 -156 0 -235 79 -255 253 -6 45 -10 301 -10 570 l0 487 -145 0 -145
0 0 -563z"/>
<path d="M20310 4180 l0 -780 145 0 145 0 2 574 3 573 179 -521 c99 -287 188
-545 198 -573 l19 -53 129 0 129 0 19 53 c10 28 99 288 198 576 l179 524 3
-576 2 -577 145 0 145 0 0 780 0 780 -204 0 -203 0 -30 -82 c-17 -46 -108
-307 -204 -580 -96 -273 -177 -494 -180 -490 -3 4 -84 228 -179 497 -95 270
-186 527 -202 573 l-30 82 -204 0 -204 0 0 -780z"/>
</g>
</svg>
